<?xml version="1.0" encoding="UTF-8" standalone="no"?>
<svg
   xmlns:dc="http://purl.org/dc/elements/1.1/"
   xmlns:cc="http://creativecommons.org/ns#"
   xmlns:rdf="http://www.w3.org/1999/02/22-rdf-syntax-ns#"
   xmlns:svg="http://www.w3.org/2000/svg"
   xmlns="http://www.w3.org/2000/svg"
   xmlns:sodipodi="http://sodipodi.sourceforge.net/DTD/sodipodi-0.dtd"
   xmlns:inkscape="http://www.inkscape.org/namespaces/inkscape"
   viewBox="0 0 2608 2720"
   height="2720"
   width="2608"
   id="svg606"
   version="1.1"
   sodipodi:docname="toyoda.svg"
   inkscape:version="0.92.2 2405546, 2018-03-11">
  <sodipodi:namedview
     pagecolor="#ffffff"
     bordercolor="#666666"
     borderopacity="1"
     objecttolerance="10"
     gridtolerance="10"
     guidetolerance="10"
     inkscape:pageopacity="0"
     inkscape:pageshadow="2"
     inkscape:window-width="1920"
     inkscape:window-height="1176"
     id="namedview6"
     showgrid="false"
     inkscape:zoom="0.36658899"
     inkscape:cx="1107.0703"
     inkscape:cy="1329.1486"
     inkscape:window-x="0"
     inkscape:window-y="24"
     inkscape:window-maximized="0"
     inkscape:current-layer="svg606" />
  <metadata
     id="metadata612">
    <rdf:RDF>
      <cc:Work
         rdf:about="">
        <dc:format>image/svg+xml</dc:format>
        <dc:type
           rdf:resource="http://purl.org/dc/dcmitype/StillImage" />
        <dc:title />
      </cc:Work>
    </rdf:RDF>
  </metadata>
  <defs
     id="defs610" />
  <path
     style="fill:#cd3333;stroke-width:1.33333337;fill-opacity:1"
     d="m 1433.8667,2675.812 c 2.53,-6.7139 4.1414,4.8356 0,0 z m 0.6953,-192.0323 c -93.2166,6.7686 -125.6664,-110.9185 -82.0287,-178.7266 30.9215,-73.0192 133.1292,-117.8346 190.6667,-47.2631 78.577,49.9808 153.7231,-50.813 207.7267,-97.256 129.6024,-149.2222 236.3855,-323.6464 293.4862,-513.4676 19.9536,-136.68 7.6967,-275.9995 20.4794,-413.4486 64.0371,-2.4555 152.4588,-105.0362 129.1636,19.9921 0.2238,175.6066 -49.4709,348.3989 -107.5934,512.4565 -99.0008,246.7313 -335.1405,393.9527 -497.2632,593.2717 -28.1069,55.0778 -60.5965,125.9661 -134,122.9679 l -16.8494,2.0246 -3.7886,-0.5512 z m -271.9502,-10.1049 C 1079.5123,2460.3044 1037.851,2381.1589 1013.4029,2308.659 809.18095,2171.0543 655.86285,1968.1416 547.04069,1749.5697 475.7043,1564.6621 460.87785,1362.6081 461.71395,1165.9838 c 136.40845,32.2872 99.00321,153.4285 104.60288,264.5854 4.91783,134.5956 26.92414,272.366 106.2165,384.9051 88.91778,173.1317 203.37395,339.1595 365.95757,450.9257 73.7205,-68.2666 210.5229,-75.2287 251.1106,33.3333 47.4886,100.043 -8.5721,202.5644 -126.9897,173.9415 z m 435.7275,-17.6285 c -21.3967,-113.2666 103.6945,-177.4725 165.083,-246.9796 -10.8266,61.4199 6.0915,130.1061 43.7716,182.189 -55.4886,41.7836 -138.7177,53.7925 -208.8546,64.7906 z M 1031.2,2449.0965 c -66.72658,-12.2224 -149.56097,-24.7887 -199.35941,-63.579 42.07296,-67.9023 14.9587,-221.5008 107.83571,-104.3236 59.35156,27.2536 73.8488,89.8543 102.5728,142.7657 -0.622,6.4115 3.7394,33.4994 -11.0491,25.1369 z m 802.0589,-65.0298 c -59.6771,-66.0397 -76.6532,-191.2619 3.3979,-247.2052 55.8757,-57.6367 110.3274,-141.8985 109.2099,-15.8124 2.0812,65.4708 113.4597,132.1867 19.3444,174.0893 -35.5438,40.2416 -90.4114,64.3116 -131.9522,88.9283 z m -1036.82062,-6.9686 c -60.79596,-36.9708 -122.74614,-77.8724 -168.63557,-131.6949 44.33531,-56.9356 68.37155,-139.9797 79.48668,-200.1695 54.44152,92.0605 196.59644,158.2476 123.7451,281.1663 -9.19826,14.155 -15.01964,52.5886 -34.59621,50.6981 z m 780.24162,-126.8065 c -56.7788,-47.4892 -167.7083,-41.1401 -86.3751,-118.5584 55.7304,-100.0099 143.6496,52.5025 230.3873,5.308 61.7765,-9.5509 -105.4995,125.0564 -144.0122,113.2504 z m -542.1704,-12.7965 c -43.21227,-38.5006 -187.29597,-132.2479 -44.6428,-107.6074 73.4208,-14.1545 141.5249,-81.4044 178.8553,26.6633 44.2492,62.5337 -100.2667,27.4418 -128.5717,84.5157 z m -70.6428,-68.4284 c -3.68881,-5.3005 -2.71174,2.5715 0,0 z M 2022.4603,2229.4 c -43.1963,-66.1857 -87.4736,-157.1219 -53.1464,-233.3083 40.4696,-44.9878 73.7025,-138.3439 97.3878,-28.1945 41.9966,87.6178 187.3809,140.1543 42.4983,213.9017 -27.8095,6.6065 -62.6382,65.2237 -86.7397,47.6011 z M 598.98479,2227.3989 C 516.1214,2170.1362 398.61136,2094.3414 529.2,2022.2007 c 50.64859,-51.5643 70.66093,-184.4399 117.6224,-59.134 71.7243,71.8941 15.6037,180.4513 -26.28907,253.7097 -6.33058,4.7974 -11.57084,22.9494 -21.54854,10.6225 z M 1669.7964,2114.4807 c -156.2079,25.6851 -114.4261,-153.9447 -9.0693,-172.961 69.974,39.0415 166.0857,61.4613 193.0976,49.547 -46.0559,69.7442 -83.9427,149.4589 -184.0283,123.414 z m -734.88276,-6.1074 c -74.48095,20.9039 -131.14049,-125.7886 -127.73299,-136.8503 85.04759,50.4905 167.02065,-89.2134 225.90425,-2.1142 95.0827,98.6765 10.8332,147.2839 -98.17126,138.9645 z m 1264.50506,-24.0402 c -66.173,-50.2857 -139.0728,-129.4343 -140.1962,-214.5998 50.4009,-44.4764 62.6861,-259.5211 114.8715,-101.3861 21.2105,94.1457 212.8194,102.0739 125.0749,198.0528 -27.6177,34.4692 -47.6853,122.8457 -99.7502,117.9331 z m -1770.73957,-4.212 C 372.1061,2033.313 324.66764,1958.6867 309.82321,1891.7333 395.35954,1853.4504 470.87286,1780.4904 500.54684,1690.4 c 12.39513,73.7267 86.56422,135.034 77.31983,207.0305 -30.77807,70.0186 -78.29197,150.0315 -149.18754,182.6906 z M 1745.2,1956.3643 c -99.5747,-2.5952 -90.6559,-92.2509 -46,-150.1555 42.2695,-95.301 159.8806,13.1998 235.2576,-56.2239 92.3418,-67.0805 46.8549,10.8803 18.9115,68.7484 -36.5328,75.1988 -71.6054,167.0387 -176.7303,139.4314 l -17.2114,-0.5619 z m -916.66667,-5.977 c -90.20648,15.5006 -93.35681,-99.7294 -138.66666,-149.1932 -38.90405,-57.7076 -65.12305,-113.9392 18.66666,-55.5068 71.23084,73.0241 184.07233,-41.8498 225.32748,45.99 83.11189,79.0283 11.67263,187.3702 -94.59313,159.6021 z M 647.80972,1718.4921 c 1.49819,-5.1471 -5.16952,0.8379 0,0 z m 1693.65588,161.3543 c -96.0032,-32.2279 -164.6013,-123.4342 -194.3867,-217.3739 23.5007,-42.2124 21.4482,-216.9515 69.6575,-157.5321 59.5427,65.3615 140.9239,130.6433 231.7969,127.9344 -25.5875,81.1775 -33.1572,170.5494 -80.8506,242.8469 l -13,4.8743 z m -2063.93631,-9.6601 c -49.6206,-66.7867 -70.87515,-145.7812 -82.6116,-226.9889 18.83845,-45.1191 165.25826,-52.3038 203.07923,-128.7974 86.45435,-139.3311 73.06909,98.0472 83.85194,157.2359 -23.32309,95.1175 -105.69284,172.0541 -196.12805,203.5621 l -8.19134,-5.0117 z M 1813.3755,1754.7977 c -103.3205,4.7414 -60.9229,-129.2587 -41.0443,-188.2728 52.6427,-20.2973 164.5776,2.8993 226.6299,-63.343 82.9793,-91.6568 0.1935,284.5961 -3.0116,188.9748 -56.1167,29.7607 -116.3021,67.9193 -182.574,62.641 z m -1027.50883,-5.9205 c -57.11629,-22.2825 -135.70035,-36.7214 -166.10664,-92.8416 -2.73877,-43.5398 -66.66821,-222.8286 4.72294,-168.2481 69.95641,55.5572 172.42655,70.0304 240.05036,67.7433 32.72145,75.3406 59.50506,228.9703 -78.66666,193.3464 z M 2409.2,1607.0355 c -87.2563,-23.2026 -168.3002,-88.9872 -209.3302,-166.9188 20.5453,-81.8465 16.0457,-179.7864 15.7192,-255.0374 76.8737,45.4227 174.4761,73.1573 262.2961,49.3631 44.5055,67.6626 21.661,167.4019 0.04,243.6407 -19.4398,51.5783 29.4999,152.4846 -68.7251,128.9524 z M 180.24465,1596.0667 c -6.72657,-64.5924 -16.04537,-126.3101 -40.49434,-187.1308 -0.51069,-85.7649 -31.59325,-217.9575 102.55667,-165.991 67.20832,-10.0799 142.61031,-36.787 195.6374,-69.4075 -18.75032,109.6716 62.97043,253.3213 -54.09015,324.5239 -54.77275,50.2762 -125.55207,105.2177 -203.60958,98.0054 z m 1647.90585,-55.8274 c -92.3309,-27.3186 -81.7472,-196.6267 -11.5837,-234.3308 80.5118,4.1698 154.3945,-31.8847 225.4532,-64.2509 -24.1386,85.9069 41.4305,222.5749 -74.1533,254.0352 -43.5003,21.4059 -89.1783,49.4188 -139.7162,44.5465 z M 781.2,1534.0053 c -68.82562,-18.7763 -139.0839,-52.3222 -191.56902,-99.7584 1.20839,-76.4939 -41.02553,-261.6887 77.94029,-164.6219 65.27545,50.61 211.13564,-4.228 199.061,116.775 22.37488,68.0362 0.84339,155.264 -85.43227,147.6053 z m 519.9093,-7.9469 c -91.1503,-50.2606 -33.5239,-161.4929 -55.2897,-239.0967 -30.4095,-57.2686 -202.8188,-167.4981 -68.5034,-189.822 45.0001,94.0044 134.9445,43.3443 100.7525,-47.3404 -10.0314,-117.01252 153.2142,-37.0263 84.5916,57.934 24.7687,139.1467 159.8682,-122.29085 165.6161,38.4484 -50.7176,93.1835 -183.9171,148.1887 -129.6031,278.9407 13.849,53.9618 -43.3849,114.4977 -97.564,100.936 z M 847.2,1286.4501 c -126.61436,-2.5664 -236.89118,-68.38 -347.00308,-122.2179 -55.73484,-19.5569 -59.86381,-67.3545 -35.16951,-116.6361 28.10334,-115.40989 123.08064,-203.86258 226.83926,-253.90333 104.71832,-19.90812 206.86329,22.69202 305.72963,50.43768 21.2017,89.55897 83.76,167.83745 134.5954,235.60285 -41.8206,128.0329 -133.20419,-59.4216 -227.65837,-53.5586 -115.70251,-32.68781 -258.23595,-42.69023 -353.81161,44.1274 59.09789,1.6801 172.22235,-77.40894 263.14495,-39.2517 112.70138,10.1409 216.51863,70.4882 296.55073,146.3116 17.38,29.7965 -107.6906,61.4233 -148.0856,83.1786 -37.35387,11.6122 -75.55516,26.0596 -115.1318,25.9095 z m 950.6667,-4.1065 c -96.126,-5.734 -184.0755,-47.7124 -273.3334,-80.0407 94.2593,-135.1099 276.3065,-186.2211 434.6667,-164.798 47.1495,12.7382 185.2403,87.017 81.9832,6.6781 -159.0025,-78.04584 -358.6165,-22.0508 -488.695,88.6263 -67.9661,-82.7215 73.354,-124.0409 82.1494,-210.4094 3.0292,-95.24296 87.3808,-120.8857 170.3284,-128.07193 97.5744,-20.50524 202.5569,13.69748 269.586,90.16842 64.8913,68.3799 153.5682,167.34751 106.6177,267.29001 -62.3099,60.7836 -158.2062,60.2641 -230.7548,105.2802 -48.2804,18.7758 -100.6613,28.1959 -152.5482,25.277 z m 602.6666,-62.6444 c -96.7805,-10.0158 -227.7331,-39.0469 -187.3174,-160.2386 -33.844,-67.20469 -50.8571,-97.91387 32.3049,-104.335 74.6099,-24.00463 151.6408,-157.79773 201.3596,-28.0589 14.1793,92.4293 22.9574,184.1028 42.7971,271.9639 -22.4116,25.4467 -58.9254,20.796 -89.1442,20.6686 z m -2201.54185,-0.6189 c -123.628141,-27.1296 26.77067,-166.1667 -20.75066,-250.34355 12.01732,-88.51267 97.29007,-162.75397 155.25326,-51.23957 46.68771,47.22937 189.29604,2.70757 120.37262,92.54552 -34.06559,76.4626 -1.81617,167.8099 -106,181.7784 -47.86016,15.3929 -97.90268,31.869 -148.87522,27.2592 z M 1220.5333,1109.1806 C 1156.3976,1059.3715 1089.7931,1009.6407 1055.2,930.7044 935.03181,691.94279 1033.6056,398.90985 1208.3089,214.58694 1268.3459,131.46849 1355.9487,79.816318 1418.7,191.7643 c 183.9436,189.71255 293.2846,489.06738 186.8338,743.5695 -32.0794,84.996 -108.611,124.2877 -176.1038,171.5074 -87.5925,-3.3636 4.1201,-142.89199 -97.2262,-143.38287 -3.2468,-233.29973 0.6114,-471.74214 -7.9244,-706.54697 -50.948,62.65292 -1.4123,239.81213 -16.402,343.21807 1.1701,121.64229 1.1236,243.29084 1.323,364.93727 -106.6896,8.80999 -0.097,138.781 -88.6671,144.1139 z m 941.634,-162.4605 C 2105.8831,881.19009 2033.8764,809.83666 1956.2,775.5878 c 108.296,-66.82244 178.0507,-200.82664 154.7176,-328.27764 84.1319,3.44199 92.7569,120.85588 169.9272,147.08984 42.4826,60.51032 96.8673,136.64787 107.858,205.65152 -46.5614,78.4949 -130.7849,148.81336 -226.5355,146.66858 z M 470.97388,930.3816 C 371.3216,934.75842 249.19828,856.86508 248.59405,754.4 c 59.31236,-59.05542 60.83233,-167.89271 151.92419,-197.18127 6.01514,-52.61529 133.31825,-180.19021 125.9421,-68.56036 -1.99246,115.38432 66.37765,220.33619 161.32931,281.75931 -77.87578,33.62868 -143.06592,94.25349 -194.78329,160.64902 -7.35146,0.0615 -14.72689,1.07484 -22.03248,-0.6851 z M 985.509,815.19281 C 894.59728,785.07958 797.92902,768.48552 705.73228,755.06667 576.55111,682.52013 511.5382,513.99729 566.44587,375.57139 607.44563,283.931 724.10715,299.65333 785.41236,237.04807 c 76.50232,-71.52849 195.48646,-27.47269 266.05874,-103.10968 52.2024,-21.92263 127.8151,-56.915414 164.2569,8.19348 17.6667,63.17947 -93.8086,107.81678 -113.9468,173.60146 -94.5696,145.79788 -147.92754,327.81206 -109.2903,500.33334 z m 679.0262,-6.45948 c 29.0707,-241.64352 -77.5502,-486.95648 -251.0841,-652.61265 22.5691,-96.01398 142.3161,-23.96354 193.0822,5.29843 73.1306,68.62861 184.839,18.69266 260.3334,83.66096 83.9916,51.22882 199.8341,85.74036 219.6181,197.01241 28.3492,129.64467 -47.0973,272.40897 -166.6968,326.97735 -87.3708,-10.52833 -174.4593,7.62997 -255.2528,39.6635 z"
     id="path616"
     inkscape:connector-curvature="0" />
</svg>
