<?xml version="1.0" standalone="no"?>
<!DOCTYPE svg PUBLIC "-//W3C//DTD SVG 20010904//EN"
 "http://www.w3.org/TR/2001/REC-SVG-20010904/DTD/svg10.dtd">
<svg version="1.0" xmlns="http://www.w3.org/2000/svg"
 width="2720.000000pt" height="2720.000000pt" viewBox="0 0 2720.000000 2720.000000"
 preserveAspectRatio="xMidYMid meet">
<metadata>
Created by potrace 1.11, written by Peter Selinger 2001-2013
</metadata>
<g transform="translate(0.000000,2720.000000) scale(0.100000,-0.100000)"
fill="#000000" stroke="none">
<path d="M12025 26169 c-33 -10 -70 -19 -82 -19 -13 0 -51 -11 -86 -24 -35
-13 -79 -27 -98 -30 -44 -7 -202 -50 -215 -59 -6 -3 -26 -9 -44 -12 -18 -3
-58 -15 -89 -26 -31 -11 -72 -25 -91 -31 -19 -5 -40 -14 -46 -19 -6 -5 -36
-16 -65 -25 -30 -9 -81 -31 -115 -50 -33 -19 -68 -34 -77 -34 -28 0 -229 -118
-317 -186 -66 -50 -103 -86 -193 -187 l-67 -75 -63 -6 c-34 -3 -138 -8 -232
-11 -93 -3 -183 -7 -200 -9 -16 -2 -66 -7 -110 -11 -44 -4 -116 -13 -160 -21
-44 -7 -93 -16 -110 -19 -16 -3 -43 -8 -60 -12 -16 -4 -34 -8 -40 -9 -103 -20
-161 -35 -330 -88 -110 -35 -225 -71 -255 -80 -30 -9 -78 -29 -106 -44 -169
-89 -205 -114 -319 -217 -43 -38 -87 -78 -99 -88 -12 -10 -43 -40 -71 -66 -78
-74 -224 -189 -280 -220 -65 -36 -131 -58 -233 -76 -206 -36 -379 -84 -472
-130 -36 -18 -90 -40 -120 -50 -69 -22 -324 -153 -410 -211 -220 -147 -414
-344 -512 -519 -58 -104 -146 -324 -162 -407 -2 -12 -11 -54 -19 -93 -24 -111
-28 -183 -29 -465 -1 -241 4 -360 16 -452 3 -18 8 -55 11 -83 8 -65 9 -71 49
-337 20 -131 46 -259 61 -305 29 -86 124 -284 211 -438 31 -55 70 -125 87
-155 96 -173 263 -384 463 -585 124 -126 172 -169 214 -196 14 -9 41 -32 60
-51 53 -52 328 -248 465 -331 71 -43 86 -45 375 -52 231 -6 331 -13 425 -31
11 -2 45 -6 75 -10 79 -8 103 -12 220 -39 58 -13 125 -27 150 -30 25 -4 59 -9
75 -11 17 -2 48 -11 70 -20 22 -9 54 -18 70 -21 17 -2 62 -13 100 -24 39 -12
77 -22 85 -24 8 -2 46 -10 84 -19 65 -16 116 -30 371 -108 101 -31 369 -102
524 -139 45 -11 96 -26 112 -34 15 -8 35 -15 44 -15 17 0 20 21 6 36 -6 5 -13
32 -16 59 -3 28 -9 64 -12 80 -4 17 -7 32 -8 35 -11 54 -16 83 -20 120 -3 25
-7 61 -10 80 -2 19 -7 64 -10 99 -4 35 -8 78 -11 95 -23 171 -24 1028 0 1151
2 11 7 43 10 70 4 28 9 57 11 65 3 13 11 80 20 160 1 14 5 45 8 70 4 25 9 68
12 95 4 28 24 122 45 210 122 503 156 633 196 740 14 39 46 129 71 200 25 72
63 171 83 220 108 259 167 392 225 510 35 72 67 141 70 155 4 14 17 39 30 55
12 17 44 71 70 120 59 109 135 247 163 295 11 19 33 57 48 85 37 69 299 462
376 565 50 67 153 203 215 285 20 26 129 161 133 165 3 3 46 52 95 110 99 117
146 168 385 412 91 94 167 174 169 180 7 19 -52 163 -83 203 -18 22 -41 54
-51 70 -64 103 -232 234 -419 328 -74 37 -155 42 -241 16z"/>
<path d="M15208 26125 c-2 -1 -36 -6 -76 -9 -82 -8 -103 -14 -180 -54 -54 -27
-134 -105 -163 -158 -8 -16 -21 -38 -27 -49 -23 -42 -42 -92 -56 -151 l-14
-61 177 -177 c97 -98 206 -212 243 -254 37 -42 78 -88 90 -102 76 -81 223
-256 273 -325 33 -44 74 -94 92 -111 19 -17 48 -55 66 -85 18 -30 66 -100 107
-156 41 -56 104 -148 140 -204 36 -55 75 -113 88 -128 13 -14 34 -47 47 -73
14 -26 49 -86 78 -135 29 -48 60 -99 68 -113 7 -14 16 -27 19 -30 10 -10 52
-86 66 -120 8 -19 22 -48 31 -65 9 -16 30 -55 46 -85 17 -30 38 -64 47 -75 10
-11 21 -31 25 -45 4 -14 30 -72 58 -130 27 -58 60 -127 72 -155 13 -27 37 -81
55 -120 117 -254 243 -581 319 -830 44 -141 102 -344 111 -385 5 -19 24 -93
43 -165 32 -120 59 -240 72 -325 12 -74 27 -158 40 -225 7 -38 16 -90 20 -115
3 -25 8 -56 10 -70 6 -34 14 -94 20 -160 3 -30 7 -75 10 -100 8 -87 17 -188
21 -261 5 -81 4 -723 -1 -804 -8 -140 -17 -261 -20 -265 -2 -3 -6 -34 -10 -70
-4 -36 -9 -68 -12 -72 -9 -16 20 -7 140 44 153 64 405 154 517 183 47 12 99
28 115 35 17 6 55 16 85 21 30 5 80 16 110 24 30 8 66 17 80 20 62 10 217 36
240 40 14 2 66 11 115 19 115 20 151 24 315 32 178 10 418 9 555 -1 61 -5 160
-9 220 -9 98 -1 113 1 141 21 18 13 41 24 52 26 12 2 29 10 39 19 10 8 38 26
63 39 25 13 47 27 48 32 2 4 8 7 14 7 5 0 26 16 46 35 20 19 40 35 45 35 15 0
179 120 254 186 181 158 393 393 520 575 116 165 235 374 288 504 9 21 19 42
24 45 4 3 22 44 39 91 17 48 39 106 50 130 33 75 104 340 117 433 3 27 8 53
10 57 3 4 7 24 11 45 3 22 8 50 10 64 10 48 12 596 3 670 -13 109 -57 312 -84
394 -40 120 -63 182 -73 202 -6 10 -27 53 -47 94 -82 166 -106 204 -249 390
-42 54 -256 258 -327 311 -41 31 -119 84 -174 119 -55 34 -112 71 -126 80 -14
10 -54 32 -90 50 -35 18 -75 40 -89 49 -14 9 -50 25 -80 36 -71 24 -281 128
-336 165 -42 30 -117 72 -209 118 -27 14 -82 47 -121 74 -40 26 -87 53 -105
60 -19 6 -43 19 -54 29 -11 9 -56 37 -100 60 -44 23 -98 54 -120 68 -65 42
-78 49 -115 68 -19 9 -60 31 -90 48 -30 17 -86 43 -125 59 -38 16 -88 37 -110
47 -34 14 -127 44 -200 63 -11 3 -40 8 -65 11 -107 12 -138 15 -180 20 -48 5
-191 13 -355 20 -302 13 -374 18 -410 30 -22 7 -60 16 -85 20 -68 10 -201 55
-235 79 -16 12 -64 40 -105 61 -41 21 -101 56 -133 77 -32 22 -72 44 -90 50
-29 10 -94 51 -138 87 -9 7 -59 36 -110 63 -52 27 -166 90 -255 139 -184 102
-281 148 -450 214 -65 26 -128 50 -139 55 -24 10 -85 29 -111 34 -10 3 -41 9
-69 16 -27 6 -72 13 -100 16 -27 2 -61 7 -75 11 -28 6 -127 13 -132 8z"/>
<path d="M13805 26048 c-11 -7 -24 -16 -30 -20 -5 -5 -68 -50 -139 -100 -149
-105 -127 -88 -285 -220 -68 -56 -142 -116 -165 -133 -64 -47 -114 -95 -346
-325 -318 -317 -533 -558 -699 -786 -52 -71 -128 -173 -168 -226 -40 -53 -93
-131 -118 -173 -25 -41 -94 -148 -154 -238 -60 -89 -124 -191 -142 -227 -18
-36 -45 -84 -60 -106 -33 -48 -165 -313 -198 -396 -13 -32 -29 -62 -37 -69 -8
-6 -14 -19 -14 -29 0 -9 -8 -28 -17 -41 -28 -38 -41 -64 -67 -132 -13 -34 -36
-85 -50 -113 -14 -29 -26 -55 -26 -59 0 -4 -6 -21 -14 -38 -31 -72 -56 -141
-56 -155 0 -8 -8 -29 -19 -46 -10 -17 -22 -48 -25 -70 -4 -21 -18 -62 -31 -91
-24 -55 -82 -237 -108 -340 -21 -83 -52 -192 -70 -245 -9 -25 -20 -70 -26
-100 -6 -30 -25 -125 -41 -210 -37 -185 -58 -299 -66 -360 -3 -25 -8 -54 -10
-65 -3 -17 -8 -59 -20 -186 -25 -271 -25 -964 0 -1109 3 -14 7 -66 10 -115 3
-50 14 -124 25 -165 11 -41 25 -104 31 -140 7 -36 13 -69 14 -75 1 -5 8 -37
15 -70 7 -33 20 -94 31 -135 10 -41 22 -97 28 -125 5 -27 14 -63 20 -80 132
-396 170 -498 240 -636 38 -74 75 -153 82 -175 7 -21 32 -70 55 -109 23 -38
63 -106 89 -150 124 -211 334 -518 431 -630 14 -16 49 -57 78 -89 29 -33 61
-71 72 -85 50 -66 314 -321 350 -339 23 -11 67 -23 99 -27 32 -3 70 -14 84
-24 15 -10 50 -31 77 -46 28 -16 114 -92 199 -177 152 -152 170 -163 211 -134
11 7 31 17 45 21 14 4 57 27 96 51 39 24 74 44 79 44 4 0 28 16 51 36 49 40
51 46 30 149 -24 115 -36 272 -36 470 1 167 6 214 28 245 10 14 24 40 30 58
23 67 119 176 227 257 68 52 182 105 224 105 l34 0 -7 1813 c-6 1739 -8 2025
-20 2872 -3 209 -8 562 -12 785 -3 223 -7 486 -9 585 -2 99 -7 372 -11 607
l-6 426 25 17 c28 18 107 30 143 21 27 -7 45 -36 50 -80 2 -17 6 -159 8 -316
7 -373 17 -831 21 -1000 20 -692 25 -1211 31 -3585 3 -1160 7 -2115 9 -2120 1
-6 19 -12 39 -13 119 -8 189 -38 313 -131 98 -74 206 -209 218 -272 3 -13 13
-39 22 -59 15 -30 18 -65 19 -235 1 -145 -3 -212 -13 -245 -14 -45 -39 -176
-50 -258 -5 -34 -2 -46 13 -58 43 -34 245 -125 330 -147 l90 -25 90 87 c260
250 339 296 549 317 90 8 100 12 165 70 62 54 396 388 450 449 50 57 194 253
215 295 20 39 64 107 125 191 22 31 47 74 56 95 20 51 82 172 104 204 9 14 20
39 24 55 4 17 14 44 21 60 7 17 34 76 59 132 25 56 48 121 51 144 4 24 18 72
31 108 37 96 86 256 99 321 2 8 11 47 20 85 23 97 22 92 30 165 4 36 15 108
26 160 11 51 22 117 25 145 4 27 8 53 10 57 27 45 26 1059 0 1283 -2 17 -7 66
-10 110 -4 44 -9 91 -11 105 -3 14 -8 43 -11 65 -3 22 -8 43 -10 46 -2 4 -6
24 -9 45 -3 22 -8 49 -10 60 -3 12 -7 48 -10 80 -3 33 -17 106 -30 164 -21 92
-47 220 -61 300 -3 14 -20 72 -38 130 -18 58 -39 132 -46 165 -7 33 -41 141
-75 240 -35 99 -71 203 -80 230 -39 111 -120 324 -148 385 -16 36 -39 92 -52
125 -12 33 -45 107 -72 165 -27 58 -55 122 -62 143 -7 20 -17 37 -22 37 -5 0
-9 6 -9 13 0 14 -13 39 -84 166 -27 47 -64 117 -84 155 -19 39 -55 104 -79
144 -24 41 -43 75 -43 77 0 6 -160 266 -211 344 -27 41 -49 75 -49 77 0 18
-332 468 -438 594 -55 65 -85 101 -182 219 -75 91 -402 427 -516 530 -27 25
-89 82 -139 127 -49 45 -108 99 -130 119 -22 20 -98 82 -170 137 -71 56 -141
111 -155 123 -14 13 -50 37 -80 53 -45 25 -59 29 -75 20z"/>
<path d="M5468 22742 c-85 -32 -130 -58 -202 -121 -26 -23 -50 -41 -54 -41 -4
0 -52 -44 -107 -98 -103 -100 -191 -209 -240 -297 -15 -27 -30 -54 -35 -60 -4
-5 -21 -35 -37 -65 -17 -30 -39 -71 -50 -91 -11 -19 -24 -51 -28 -70 -4 -19
-23 -60 -41 -92 -19 -32 -34 -61 -35 -65 0 -4 -17 -32 -37 -62 -36 -52 -42
-56 -147 -98 -168 -67 -275 -146 -445 -330 -57 -62 -126 -150 -178 -230 -34
-51 -73 -108 -88 -127 -14 -19 -24 -35 -21 -35 3 0 -24 -57 -59 -127 -36 -71
-82 -183 -104 -251 -22 -67 -44 -131 -49 -141 -6 -10 -13 -33 -16 -51 -9 -53
-62 -138 -124 -201 -53 -52 -195 -211 -225 -250 -87 -115 -140 -267 -141 -404
0 -86 2 -93 42 -173 59 -115 131 -218 282 -405 53 -65 287 -304 357 -364 39
-33 167 -148 195 -175 15 -14 50 -41 76 -59 26 -18 50 -35 53 -39 10 -11 108
-80 114 -80 4 0 33 -12 64 -26 61 -28 145 -57 202 -69 19 -4 47 -13 61 -21 27
-14 239 -59 324 -69 28 -3 60 -8 72 -10 12 -3 46 -8 75 -10 29 -3 71 -8 93
-10 23 -2 77 -7 120 -10 44 -4 98 -11 120 -17 59 -15 237 -12 246 4 13 23 206
269 261 332 85 98 256 269 344 343 100 84 422 361 449 386 54 50 417 305 479
338 211 109 254 129 331 154 38 13 71 28 73 33 3 11 -66 65 -269 210 -130 92
-160 119 -331 292 -292 294 -395 421 -541 664 -147 245 -328 618 -341 702 -3
21 -8 51 -11 67 -2 15 -9 53 -15 85 -6 31 -12 66 -14 77 -32 157 -44 228 -45
269 -1 26 -3 51 -5 55 -3 4 -8 38 -11 76 -4 39 -8 72 -10 75 -3 5 -13 134 -21
260 -6 99 -5 410 1 419 9 16 -29 23 -155 27 -118 4 -129 3 -202 -24z"/>
<path d="M21673 22694 c3 -22 8 -49 11 -61 5 -22 10 -73 25 -226 19 -205 -10
-585 -65 -839 -9 -39 -12 -55 -24 -98 -14 -53 -135 -390 -156 -437 -8 -17 -14
-33 -14 -36 0 -3 -32 -72 -71 -153 -123 -256 -299 -523 -477 -724 -171 -193
-337 -358 -432 -429 -41 -31 -77 -58 -80 -61 -24 -27 -164 -126 -207 -147 -30
-15 -59 -35 -64 -45 -8 -16 -4 -21 25 -33 20 -8 41 -15 48 -15 7 0 40 -13 73
-29 33 -16 83 -39 110 -51 28 -12 57 -25 65 -30 8 -5 66 -39 128 -75 62 -37
139 -87 171 -111 32 -24 62 -44 67 -44 13 0 309 -228 370 -285 13 -13 186
-171 228 -208 121 -110 363 -359 428 -442 44 -55 100 -124 126 -154 26 -30 75
-91 109 -137 58 -77 66 -83 107 -89 43 -7 180 -2 296 11 139 14 383 78 492
128 29 13 71 30 93 37 22 7 58 22 80 34 22 12 75 41 117 64 43 23 84 48 91 55
7 7 24 19 37 26 82 42 330 235 469 364 117 110 304 315 413 453 128 163 229
359 236 459 8 120 -62 278 -184 414 -220 245 -235 264 -298 390 -35 69 -71
148 -80 175 -9 28 -23 64 -30 80 -7 17 -19 46 -26 65 -15 42 -54 147 -65 175
-28 74 -124 258 -158 304 -53 72 -229 252 -270 276 -70 40 -276 180 -338 230
-176 142 -335 316 -415 456 -6 11 -20 30 -31 42 -18 20 -104 146 -172 252 -14
22 -38 55 -53 73 -15 18 -28 37 -28 43 0 15 -108 144 -176 211 -94 91 -126
117 -182 145 -47 23 -68 26 -189 31 l-136 5 6 -39z"/>
<path d="M7877 19314 c-1 -1 -56 -4 -122 -7 -163 -9 -190 -14 -315 -59 -94
-34 -254 -119 -430 -228 -89 -55 -266 -185 -331 -244 -25 -22 -63 -54 -85 -71
-53 -42 -94 -77 -204 -175 -53 -47 -129 -114 -169 -150 -138 -121 -274 -255
-330 -325 -73 -92 -74 -93 -114 -142 -115 -141 -311 -485 -389 -683 -16 -41
-41 -102 -57 -135 -28 -61 -68 -182 -116 -355 -15 -52 -33 -110 -41 -127 -7
-18 -18 -63 -24 -100 -6 -36 -13 -69 -15 -73 -6 -10 -45 -192 -61 -290 -3 -19
-7 -37 -9 -40 -2 -3 -6 -33 -10 -65 -3 -33 -8 -69 -10 -80 -3 -14 10 -33 47
-65 77 -67 220 -178 248 -192 14 -7 54 -35 90 -61 86 -64 162 -112 235 -149
33 -17 74 -41 91 -54 17 -13 48 -30 70 -38 21 -7 101 -43 176 -79 75 -37 148
-69 162 -73 13 -3 32 -14 42 -25 9 -10 22 -19 28 -19 6 0 34 -11 61 -25 28
-13 56 -25 63 -25 13 0 145 -63 167 -79 6 -4 29 -13 53 -20 23 -6 79 -30 124
-51 45 -22 87 -40 94 -40 6 0 17 -7 24 -15 7 -8 20 -15 29 -15 9 0 32 -9 51
-20 19 -11 47 -25 63 -31 15 -6 27 -15 27 -20 0 -5 33 -25 73 -43 39 -18 99
-46 132 -61 112 -53 250 -108 385 -155 74 -26 143 -50 152 -53 33 -13 50 -17
157 -41 59 -14 134 -34 167 -44 32 -11 86 -23 119 -26 97 -10 149 -18 165 -26
8 -5 38 -11 65 -14 28 -3 61 -8 75 -10 14 -3 54 -7 90 -10 36 -4 83 -8 105
-11 63 -7 122 -14 236 -25 58 -6 118 -14 135 -18 31 -8 45 -8 109 1 22 3 74
11 115 17 115 16 124 18 290 61 85 22 164 42 175 44 127 29 577 181 683 230
29 14 59 25 66 25 7 0 49 16 92 35 44 20 88 39 99 44 11 5 42 19 69 31 27 12
72 30 100 41 52 20 509 248 646 322 152 82 227 116 268 123 23 4 45 11 48 16
3 5 -17 32 -45 60 -48 48 -53 50 -91 44 l-40 -6 -138 137 c-133 134 -230 222
-295 270 -18 13 -52 42 -77 64 -46 42 -506 348 -576 384 -21 10 -61 33 -89 50
-27 17 -84 47 -125 67 -136 67 -246 118 -253 118 -4 0 -44 18 -89 40 -46 22
-89 40 -95 40 -7 0 -30 9 -50 20 -21 11 -43 20 -49 20 -7 0 -43 13 -82 30 -77
32 -350 125 -397 135 -53 10 -139 24 -185 30 -25 3 -56 7 -70 10 -130 25 -382
60 -510 70 -41 4 -81 8 -88 11 -72 23 -800 24 -840 0 -4 -2 -38 -7 -77 -10
-38 -4 -81 -9 -95 -11 -14 -2 -50 -7 -80 -10 -81 -10 -185 -33 -226 -50 -20
-8 -60 -21 -88 -29 -62 -18 -129 -41 -176 -63 -132 -60 -238 -115 -317 -165
-50 -31 -109 -67 -130 -79 -35 -20 -143 -101 -188 -142 -43 -39 -65 -34 -118
23 -81 89 -81 115 -1 166 30 19 69 47 87 63 47 41 206 151 218 151 6 0 25 12
43 27 40 34 313 168 385 189 31 9 68 24 82 35 15 10 34 19 43 19 8 0 45 11 81
25 36 13 76 26 88 28 12 2 47 11 77 20 30 8 93 19 140 22 47 4 99 9 115 11
209 26 995 26 1134 -1 14 -2 54 -7 90 -10 128 -10 161 -14 198 -24 43 -12 56
-14 213 -36 303 -43 758 -201 1184 -413 115 -57 239 -122 275 -144 36 -22 93
-54 126 -71 184 -94 579 -386 810 -599 38 -35 45 -35 45 0 2 83 38 224 73 282
58 96 205 263 248 280 16 7 29 14 29 17 0 15 -39 74 -74 112 -22 24 -66 72
-97 105 -60 65 -121 133 -164 181 -14 17 -44 56 -66 87 -21 31 -44 60 -49 63
-15 10 -210 273 -210 284 0 5 -3 11 -8 13 -27 11 -264 420 -364 628 -147 303
-193 416 -289 710 -28 85 -56 161 -62 168 -16 21 -59 40 -102 46 -100 16 -500
120 -615 161 -36 12 -81 28 -100 35 -19 7 -60 16 -90 20 -30 4 -75 15 -100 23
-25 8 -97 29 -160 47 -63 17 -137 39 -165 49 -27 10 -72 22 -100 25 -27 4 -78
16 -112 26 -33 10 -81 21 -105 25 -23 3 -68 10 -98 15 -30 5 -71 11 -90 14
-19 3 -71 12 -115 20 -108 21 -141 24 -275 32 -106 5 -418 12 -423 8z"/>
<path d="M18819 19296 c-2 -2 -22 -6 -44 -10 -22 -3 -51 -8 -65 -11 -48 -9
-75 -14 -110 -19 -51 -8 -377 -64 -430 -75 -25 -5 -85 -21 -135 -36 -49 -15
-117 -35 -150 -45 -179 -52 -245 -74 -295 -95 -30 -14 -102 -41 -160 -60 -58
-20 -132 -48 -165 -64 -33 -16 -70 -32 -82 -35 -12 -4 -24 -15 -27 -24 -5 -17
-22 -103 -30 -152 -8 -51 -59 -229 -96 -340 -22 -63 -44 -137 -50 -163 -6 -26
-19 -67 -29 -90 -10 -23 -33 -77 -52 -121 -95 -219 -259 -532 -326 -622 -13
-17 -23 -34 -23 -39 0 -14 -132 -199 -229 -320 -52 -66 -187 -211 -298 -323
-112 -111 -203 -203 -203 -205 0 -1 24 -28 54 -59 89 -93 178 -296 193 -443 8
-79 14 -82 65 -33 24 24 71 63 103 88 33 25 111 85 175 133 63 49 144 105 180
125 36 20 129 75 206 123 117 72 387 212 544 282 197 88 415 177 493 202 23 7
82 27 130 45 85 30 280 73 477 104 308 48 533 74 820 93 195 13 425 8 585 -12
17 -2 62 -7 100 -10 112 -10 149 -14 171 -19 12 -3 39 -8 60 -12 96 -15 185
-37 273 -69 53 -20 134 -49 181 -67 182 -66 451 -213 591 -320 30 -24 76 -59
101 -78 64 -50 96 -94 90 -125 -2 -14 -24 -46 -48 -71 -35 -36 -49 -44 -67
-39 -31 9 -117 61 -158 96 -19 16 -40 33 -46 39 -32 27 -277 168 -358 206
-212 101 -462 182 -645 209 -85 12 -95 14 -195 22 -270 21 -1086 -2 -1135 -32
-5 -3 -43 -8 -168 -20 -24 -3 -69 -11 -100 -19 -31 -8 -93 -18 -137 -22 -43
-3 -104 -15 -134 -25 -30 -11 -64 -19 -75 -19 -27 0 -276 -80 -337 -108 -25
-12 -57 -23 -70 -26 -13 -2 -65 -23 -115 -45 -51 -23 -100 -41 -110 -41 -11 0
-34 -9 -53 -21 -18 -11 -122 -65 -230 -120 -258 -131 -324 -168 -483 -268
-113 -72 -466 -328 -506 -367 -7 -7 -33 -30 -59 -51 -75 -61 -154 -149 -190
-211 -18 -31 -37 -63 -41 -69 -4 -7 -38 -58 -77 -114 -81 -118 -83 -113 48
-154 43 -14 88 -30 98 -36 11 -5 82 -32 157 -58 75 -27 155 -56 177 -66 59
-26 282 -105 340 -120 28 -7 75 -24 105 -37 49 -22 110 -42 118 -38 1 0 28
-12 60 -29 55 -29 356 -129 457 -152 28 -7 61 -18 75 -25 14 -7 54 -20 90 -28
36 -9 99 -25 140 -36 41 -11 91 -22 110 -25 56 -8 88 -14 195 -39 88 -21 160
-32 270 -41 17 -2 75 -6 130 -11 211 -17 561 -8 770 21 196 26 626 135 745
187 30 13 78 30 105 38 28 7 78 26 113 41 35 16 66 29 68 29 3 0 98 45 212
101 114 56 216 105 227 109 11 5 56 24 100 43 101 43 277 104 330 113 22 4 54
15 71 25 37 20 177 66 220 71 16 2 49 11 74 20 25 10 88 30 141 46 52 17 113
39 134 51 22 12 47 21 57 21 19 0 163 72 285 143 46 27 121 85 174 135 87 82
96 94 151 208 39 80 64 147 74 200 17 86 24 315 11 404 -4 30 -10 73 -12 95
-3 22 -19 76 -35 120 -16 44 -36 108 -45 143 -9 35 -27 89 -42 120 -14 31 -41
91 -60 132 -114 248 -348 623 -471 755 -16 17 -50 59 -76 95 -91 123 -357 408
-547 586 -94 87 -337 292 -381 321 -23 16 -50 35 -59 44 -37 37 -130 100 -230
158 -117 67 -414 212 -469 230 -28 8 -135 39 -160 46 -5 1 -137 24 -175 30
-20 3 -83 14 -120 21 -54 11 -606 16 -634 6 -19 -7 -33 -7 -36 -1 -6 8 -127
13 -136 5z"/>
<path d="M3065 18659 c-33 -11 -69 -21 -80 -22 -33 -3 -147 -125 -229 -247
-100 -147 -271 -428 -281 -460 -4 -14 -13 -32 -20 -40 -21 -24 -62 -130 -84
-215 -30 -121 -38 -242 -33 -545 7 -513 7 -705 0 -750 -18 -114 -42 -177 -143
-385 -51 -104 -96 -201 -100 -215 -4 -14 -17 -47 -30 -75 -12 -27 -28 -86 -35
-130 -6 -44 -13 -87 -15 -95 -9 -46 -19 -138 -18 -162 3 -60 65 -146 127 -177
111 -55 195 -86 256 -95 19 -4 72 -15 117 -25 67 -15 114 -18 255 -16 95 2
207 6 248 10 87 8 306 55 400 86 36 11 100 27 142 35 43 8 110 25 150 38 40
13 89 27 108 30 34 5 115 29 155 46 11 5 65 25 120 45 93 33 189 72 325 133
104 46 303 172 416 263 40 33 75 63 78 67 2 4 -15 31 -40 61 -50 60 -50 65
-29 196 8 50 17 117 21 149 3 33 9 67 14 76 5 9 14 44 19 76 14 81 21 116 27
136 3 9 6 25 8 35 8 37 38 151 62 230 14 45 27 90 29 100 8 34 34 118 54 173
11 30 20 62 21 71 0 9 9 27 19 41 11 13 23 38 27 54 11 46 92 246 107 263 8 9
23 40 35 68 11 29 34 73 51 97 17 25 31 49 31 54 0 15 -27 22 -88 22 -31 0
-97 7 -147 15 -49 8 -124 18 -165 21 -41 3 -102 10 -135 15 -33 6 -73 12 -90
15 -16 2 -41 7 -55 10 -14 3 -38 8 -55 11 -41 6 -365 93 -384 103 -9 5 -45 20
-81 35 -82 33 -276 146 -300 175 -3 3 -32 28 -65 54 -90 72 -222 194 -390 358
-178 174 -193 187 -223 199 -31 12 -37 11 -107 -12z"/>
<path d="M24142 18442 c-74 -75 -177 -175 -229 -222 -53 -47 -107 -97 -120
-111 -13 -14 -56 -48 -96 -75 -39 -27 -74 -51 -77 -54 -52 -55 -387 -244 -540
-305 -52 -21 -100 -41 -105 -46 -6 -4 -23 -10 -39 -13 -25 -4 -85 -23 -236
-71 -56 -18 -82 -22 -260 -40 -85 -9 -135 -16 -139 -21 -2 -2 3 -12 12 -22 10
-10 17 -21 17 -25 0 -3 23 -43 50 -90 65 -108 228 -457 240 -511 5 -22 20 -72
34 -109 29 -76 71 -273 81 -382 7 -73 8 -251 1 -295 -2 -14 -7 -45 -10 -70
-12 -76 -36 -151 -73 -222 l-36 -68 27 -29 c58 -60 358 -229 586 -330 41 -19
89 -40 105 -47 73 -33 268 -94 445 -140 74 -19 160 -44 190 -54 30 -11 80 -21
110 -24 30 -2 87 -11 125 -19 67 -15 110 -21 240 -33 33 -3 80 -7 105 -10 52
-4 348 -5 400 0 200 19 332 55 408 112 62 47 110 106 124 154 7 25 12 88 12
140 -1 78 -7 115 -34 205 -19 61 -41 121 -50 135 -9 14 -22 39 -29 55 -7 17
-44 80 -82 141 -143 229 -149 260 -142 794 9 763 8 771 -54 959 -14 42 -27 92
-29 111 -6 49 -138 313 -192 383 -137 180 -317 318 -467 358 -144 38 -123 47
-273 -109z"/>
<path d="M13720 17334 c-93 -20 -148 -41 -203 -75 -65 -41 -73 -50 -123 -124
-69 -104 -67 -97 -60 -277 4 -90 9 -178 11 -196 2 -19 7 -66 10 -105 3 -40 8
-85 11 -102 10 -64 13 -334 4 -400 -27 -193 -200 -394 -342 -397 -110 -2 -205
70 -456 342 -146 157 -202 208 -258 236 -125 61 -248 37 -375 -75 -52 -46 -71
-75 -130 -202 -16 -35 -30 -133 -24 -172 10 -66 45 -148 84 -197 35 -44 139
-148 611 -615 403 -399 573 -627 588 -790 9 -96 8 -517 -1 -641 -8 -106 -11
-125 -28 -214 -7 -32 -12 -170 -12 -332 0 -259 2 -283 23 -350 12 -40 30 -89
40 -108 9 -19 20 -48 24 -63 4 -16 37 -83 74 -150 56 -102 83 -139 167 -225
84 -86 113 -110 182 -144 72 -36 91 -41 160 -43 130 -4 203 11 304 60 50 24
107 56 126 70 47 37 250 240 298 300 22 28 46 54 53 58 6 4 12 12 12 18 0 5
12 28 28 51 l27 42 -1 275 c0 244 -5 392 -19 541 -2 25 -7 90 -10 145 -4 55
-9 114 -11 130 -11 77 -10 311 0 410 24 214 62 279 305 523 173 172 224 221
346 324 180 153 448 417 515 509 73 98 151 253 166 330 12 63 11 212 -2 292
-16 101 -54 177 -119 234 -68 62 -98 73 -204 73 -110 0 -148 -15 -253 -99 -86
-68 -115 -94 -367 -333 -117 -111 -244 -195 -311 -205 -23 -3 -129 26 -169 47
-38 20 -120 94 -163 147 -43 54 -59 128 -58 276 0 73 2 143 4 157 3 14 7 56
10 94 4 38 8 78 11 90 2 11 6 39 9 61 3 22 12 67 21 100 25 92 25 94 25 195 1
164 -14 234 -67 312 -49 72 -78 99 -148 137 -108 58 -232 78 -335 55z"/>
<path d="M5179 15518 c-7 -154 6 -1266 16 -1378 2 -25 6 -101 10 -170 3 -69 8
-145 10 -170 4 -42 8 -76 20 -220 5 -60 12 -154 20 -270 6 -85 15 -171 30
-290 2 -19 7 -69 11 -110 8 -90 9 -94 19 -145 4 -22 9 -49 12 -60 2 -11 6 -54
9 -95 3 -41 10 -97 16 -125 6 -27 12 -59 14 -70 16 -144 26 -225 30 -247 14
-88 30 -185 39 -228 3 -14 12 -72 21 -130 8 -58 24 -138 35 -178 10 -40 21
-89 24 -108 3 -19 7 -49 10 -66 6 -44 82 -404 94 -448 6 -19 12 -53 14 -75 3
-22 12 -58 21 -80 9 -22 26 -85 40 -140 44 -189 85 -330 129 -450 25 -66 54
-154 66 -195 12 -41 31 -91 41 -111 11 -20 20 -43 20 -51 0 -7 9 -30 20 -51
11 -20 20 -42 20 -48 0 -39 236 -525 366 -754 40 -71 74 -135 74 -141 0 -6 18
-35 39 -65 22 -30 50 -75 62 -99 13 -25 80 -130 149 -235 70 -104 148 -226
175 -270 27 -44 81 -129 120 -190 39 -60 112 -177 161 -258 78 -131 172 -266
211 -305 7 -8 21 -28 30 -45 9 -18 55 -84 103 -147 48 -63 113 -151 145 -195
32 -44 118 -157 192 -251 73 -95 133 -175 133 -178 0 -4 12 -19 26 -34 14 -15
79 -95 144 -177 109 -138 181 -223 374 -440 137 -154 183 -202 481 -500 257
-258 346 -342 469 -448 12 -10 48 -42 80 -70 33 -29 80 -68 105 -88 25 -19
133 -104 239 -188 106 -84 217 -169 247 -189 29 -21 98 -71 152 -112 54 -42
122 -90 150 -108 70 -42 198 -137 250 -185 29 -26 47 -55 59 -90 23 -74 101
-263 129 -319 13 -25 26 -58 29 -72 3 -15 14 -41 24 -59 11 -18 23 -43 27 -57
11 -38 103 -218 141 -276 19 -28 34 -56 34 -61 0 -18 81 -136 139 -203 100
-116 189 -197 268 -246 43 -27 85 -55 93 -63 16 -15 152 -81 168 -81 5 0 15
-6 21 -14 7 -8 58 -28 114 -45 56 -17 143 -46 192 -63 86 -30 98 -31 250 -32
148 -1 367 9 475 20 25 3 68 6 95 8 114 7 243 43 324 89 42 24 57 39 91 87 14
19 32 43 40 53 33 39 88 143 161 305 11 24 22 60 25 80 2 20 9 60 15 87 6 28
13 73 17 100 9 69 8 348 -1 415 -16 122 -36 219 -52 250 -7 14 -17 48 -23 77
-35 163 -205 452 -366 620 -129 135 -213 202 -323 258 -79 40 -273 104 -367
121 -16 3 -32 7 -36 9 -3 2 -29 7 -56 10 -27 4 -56 8 -65 11 -71 20 -244 24
-304 7 -245 -69 -353 -119 -693 -318 -111 -65 -211 -127 -222 -137 -30 -28
-138 -77 -158 -71 -10 2 -108 74 -217 159 -225 174 -205 158 -305 245 -41 35
-120 103 -175 149 -55 47 -109 94 -121 105 -90 86 -289 271 -332 308 -30 25
-66 60 -80 78 -25 29 -149 161 -292 309 -55 57 -158 169 -265 290 -44 50 -248
300 -342 420 -47 60 -291 393 -306 416 -9 16 -42 63 -72 104 -30 41 -71 100
-91 130 -20 30 -51 73 -69 95 -18 22 -52 74 -75 115 -24 41 -80 131 -125 200
-79 121 -122 198 -248 440 -33 63 -79 144 -102 180 -23 36 -56 93 -73 128 -39
77 -102 193 -112 207 -4 6 -25 42 -45 80 -21 39 -48 84 -61 100 -26 35 -97
161 -126 225 -11 25 -24 47 -28 50 -4 3 -20 29 -34 59 -15 29 -56 101 -91 160
-34 58 -77 137 -95 174 -18 38 -38 71 -46 74 -8 3 -14 9 -14 15 0 14 -48 112
-106 219 -51 91 -170 356 -210 464 -10 28 -24 56 -31 63 -7 7 -13 21 -13 30 0
9 -16 60 -36 112 -82 220 -145 462 -179 695 -4 22 -8 51 -10 65 -12 75 -25
160 -29 195 -3 22 -24 166 -45 320 -22 154 -42 316 -46 360 -3 44 -8 94 -10
110 -3 26 -17 303 -17 345 0 8 -4 36 -9 62 -14 81 -23 205 -34 493 -2 55 -7
183 -11 285 -14 355 -7 1027 12 1197 7 69 12 350 6 381 -4 18 -18 30 -56 47
-266 118 -616 305 -799 426 -192 128 -187 125 -188 97z"/>
<path d="M4864 15452 c-60 -53 -114 -94 -149 -112 -61 -33 -203 -108 -221
-119 -54 -30 -204 -93 -299 -125 -59 -20 -117 -42 -128 -48 -25 -13 -276 -90
-367 -113 -36 -8 -69 -17 -75 -18 -5 -1 -15 -5 -20 -9 -6 -3 -29 -9 -52 -13
-41 -6 -84 -16 -348 -88 -120 -32 -121 -32 -360 -32 -260 0 -372 7 -450 29
-83 24 -178 56 -208 72 -59 29 -71 21 -164 -121 -77 -119 -116 -199 -153 -320
-48 -151 -43 -185 45 -331 31 -50 67 -146 79 -209 4 -16 9 -41 11 -55 7 -33 7
-216 0 -260 -2 -19 -7 -78 -10 -130 -6 -95 -11 -140 -21 -171 -19 -66 -20
-265 -1 -311 8 -19 18 -55 22 -79 4 -24 23 -82 41 -128 19 -47 34 -90 34 -96
0 -7 11 -25 25 -41 33 -38 78 -132 127 -269 l40 -110 4 -315 c4 -392 7 -433
37 -546 41 -151 56 -166 169 -166 66 0 86 2 154 16 11 2 58 7 105 11 74 5 172
29 234 55 11 5 47 18 80 28 219 73 596 279 825 451 41 31 89 65 105 76 58 36
305 243 390 326 33 32 114 111 181 176 66 65 153 154 192 198 39 44 111 121
159 171 48 50 105 120 126 155 36 59 38 68 32 119 -3 30 -7 75 -10 100 -2 25
-6 68 -9 95 -3 28 -8 84 -10 125 -3 41 -8 98 -10 125 -3 28 -8 93 -11 145 -4
52 -8 111 -10 130 -4 43 -14 217 -20 365 -3 61 -8 164 -11 230 -6 131 -10 350
-15 810 -2 297 -8 365 -32 365 -7 0 -31 -17 -53 -38z"/>
<path d="M22320 15324 c-114 -86 -206 -144 -229 -144 -8 0 -24 -9 -35 -19 -12
-11 -59 -34 -106 -51 -47 -18 -89 -36 -95 -40 -5 -4 -41 -17 -80 -30 -38 -12
-79 -28 -91 -35 -11 -7 -37 -16 -58 -19 -28 -5 -398 -113 -413 -121 -2 -1 -5
-33 -8 -71 -3 -38 -7 -89 -10 -114 -22 -249 -29 -399 -40 -845 -10 -439 -20
-837 -30 -1235 -3 -107 -7 -280 -10 -385 -5 -223 -13 -452 -20 -620 -6 -117
-9 -183 -20 -335 -14 -198 -16 -226 -20 -240 -2 -8 -7 -41 -10 -73 -3 -32 -12
-86 -19 -120 -24 -102 -46 -200 -50 -229 -2 -14 -10 -37 -17 -50 -7 -12 -16
-41 -20 -63 -8 -48 -53 -179 -75 -218 -8 -15 -17 -36 -19 -47 -8 -43 -48 -158
-80 -230 -18 -41 -41 -97 -50 -125 -10 -27 -27 -72 -40 -100 -12 -27 -30 -72
-40 -100 -10 -27 -26 -61 -35 -75 -9 -14 -22 -45 -29 -70 -13 -46 -341 -713
-499 -1015 -49 -93 -147 -271 -217 -395 -183 -321 -193 -339 -215 -370 -11
-15 -20 -31 -20 -34 0 -3 -20 -36 -44 -73 -24 -37 -47 -78 -50 -91 -4 -12 -18
-34 -30 -50 -37 -44 -146 -207 -226 -337 -41 -66 -127 -194 -192 -285 -65 -91
-122 -172 -128 -180 -118 -169 -373 -505 -488 -641 -11 -13 -59 -71 -108 -129
-48 -58 -94 -112 -103 -121 -9 -8 -36 -40 -60 -70 -69 -83 -525 -535 -626
-619 -49 -41 -99 -83 -110 -93 -34 -32 -314 -230 -440 -312 -66 -43 -136 -88
-156 -101 -19 -13 -39 -24 -43 -24 -4 0 -49 -17 -99 -39 -191 -80 -199 -83
-302 -82 -135 0 -238 37 -380 135 -16 11 -59 40 -95 64 -36 24 -81 58 -100 75
-40 36 -56 47 -185 134 -49 33 -103 65 -120 71 -16 6 -62 22 -101 36 -103 37
-202 43 -284 18 -36 -11 -94 -25 -130 -31 -36 -6 -94 -26 -130 -44 -153 -77
-269 -143 -325 -186 -84 -64 -286 -269 -334 -338 -60 -87 -137 -216 -146 -244
-4 -13 -16 -35 -26 -48 -11 -13 -19 -30 -19 -37 0 -7 -9 -33 -19 -56 -34 -76
-62 -155 -67 -189 -3 -19 -12 -61 -21 -94 -24 -89 -29 -517 -7 -600 9 -33 19
-81 24 -106 8 -46 39 -118 81 -186 75 -123 215 -284 260 -298 12 -4 31 -16 42
-26 11 -10 36 -24 56 -30 20 -7 56 -22 81 -34 79 -40 156 -55 351 -70 37 -3
77 -9 90 -13 12 -5 41 -5 63 -1 23 4 70 10 106 13 36 4 79 8 95 10 17 2 59 7
94 11 35 4 82 14 105 22 23 8 70 21 105 29 35 7 68 17 75 22 6 5 24 12 40 16
94 23 277 165 377 294 35 45 79 99 96 120 18 20 33 42 33 49 0 13 124 255 150
293 9 14 30 54 46 90 46 105 89 178 247 414 92 138 227 284 728 785 352 352
416 415 764 746 523 497 1510 1484 1710 1710 175 198 352 406 434 510 56 72
108 137 114 145 7 8 26 33 42 55 16 22 32 42 36 45 12 10 89 119 89 126 0 4
17 26 38 49 20 22 43 50 49 61 7 10 24 35 37 54 205 296 410 630 558 910 25
47 54 101 65 120 10 19 37 76 58 125 22 50 47 101 57 115 9 14 38 76 63 139
25 63 54 130 64 150 10 20 25 56 33 81 9 25 39 105 67 178 28 72 53 146 56
164 3 17 12 43 20 57 30 58 144 441 225 761 23 91 69 264 102 385 33 121 61
227 63 235 2 8 13 48 25 88 23 81 139 535 145 567 2 11 6 39 9 62 3 23 12 59
21 79 8 20 20 69 26 108 6 39 24 130 39 201 16 72 31 144 33 160 20 124 29
167 41 196 8 19 17 59 21 89 3 30 8 62 10 70 2 8 7 38 10 65 3 28 7 60 9 71 6
29 36 261 41 321 3 26 7 68 10 93 2 25 7 77 11 115 3 39 8 73 10 76 14 23 19
209 19 649 0 499 -3 572 -25 680 -6 30 -13 82 -17 115 -3 33 -7 69 -8 80 -1
11 -3 30 -4 43 0 12 -5 22 -11 22 -5 0 -55 -34 -110 -76z"/>
<path d="M22679 15353 c-3 -30 -2 -46 4 -93 3 -25 9 -72 13 -105 3 -33 8 -68
10 -78 25 -133 25 -1143 -1 -1297 -2 -14 -6 -47 -10 -75 -3 -27 -8 -63 -10
-80 -6 -50 -14 -117 -20 -170 -3 -27 -14 -97 -25 -155 -10 -58 -21 -130 -25
-160 -19 -177 -35 -275 -59 -353 -8 -26 -10 -49 -6 -52 4 -3 22 -29 38 -58 72
-125 247 -330 487 -572 172 -173 215 -213 315 -295 30 -25 57 -47 60 -50 90
-92 404 -300 644 -425 144 -76 369 -170 428 -180 18 -3 40 -8 48 -10 8 -2 31
-6 50 -9 19 -3 53 -9 75 -13 22 -4 103 -7 180 -7 128 -1 146 2 214 27 103 38
147 78 182 167 21 52 22 67 19 305 -7 564 -6 597 41 770 21 76 90 232 124 280
20 27 77 182 91 246 22 101 20 221 -6 320 -9 33 -22 96 -38 179 -4 19 -7 123
-7 230 0 231 6 258 98 424 55 99 61 116 60 165 -1 83 -28 184 -64 245 -11 19
-22 44 -24 56 -2 12 -20 46 -40 75 -19 29 -35 56 -35 60 0 12 -72 116 -108
156 l-35 38 -36 -16 c-59 -25 -207 -62 -284 -70 -80 -8 -396 -7 -497 1 -36 3
-99 8 -140 11 -41 3 -84 8 -96 10 -12 3 -39 7 -60 10 -21 3 -59 10 -84 15 -25
5 -56 12 -70 14 -14 3 -59 12 -100 21 -41 9 -82 18 -90 19 -8 1 -35 8 -60 15
-25 7 -53 15 -62 16 -9 2 -99 29 -200 60 -169 53 -231 75 -315 111 -17 8 -34
14 -37 14 -7 0 -88 35 -126 55 -14 7 -37 15 -52 19 -15 3 -47 19 -70 35 -24
15 -74 45 -113 66 -38 21 -88 50 -110 65 -63 42 -65 43 -66 23z"/>
<path d="M6449 14827 c-1 -18 -3 -48 -4 -67 -2 -19 -6 -116 -9 -215 -4 -99 -9
-229 -12 -290 -6 -146 -6 -603 0 -735 3 -58 8 -175 11 -260 5 -157 12 -285 20
-374 5 -49 38 -113 63 -118 6 -2 40 -25 75 -51 52 -41 144 -100 392 -254 117
-72 568 -306 682 -353 96 -39 387 -166 427 -186 16 -8 37 -14 46 -14 10 0 37
-7 60 -15 82 -29 299 -47 375 -32 11 3 42 8 70 12 72 10 150 42 237 97 43 26
80 48 82 48 18 0 131 78 177 122 77 74 88 96 105 217 3 25 8 57 10 71 2 14 6
52 10 85 3 33 11 98 18 145 12 80 13 281 2 352 -2 18 -12 87 -21 153 -10 68
-28 145 -41 177 -37 89 -49 158 -59 338 -4 85 -48 234 -79 270 -8 8 -21 32
-31 52 -16 35 -67 97 -83 99 -4 1 -16 3 -27 4 -11 1 -40 5 -65 9 -25 4 -65 9
-90 11 -25 3 -63 7 -85 10 -22 3 -71 7 -110 10 -38 3 -77 8 -85 10 -8 2 -40 7
-70 10 -30 3 -62 8 -70 10 -8 2 -40 7 -70 10 -30 4 -111 20 -180 37 -69 16
-136 32 -150 34 -102 19 -479 136 -575 179 -27 13 -114 50 -193 84 -163 70
-234 104 -277 135 -16 11 -40 26 -52 33 -12 6 -35 18 -50 27 -42 24 -325 137
-350 141 -20 3 -23 -2 -24 -28z"/>
<path d="M20920 14768 c-19 -11 -71 -36 -115 -55 -44 -19 -127 -58 -185 -85
-233 -112 -294 -140 -402 -184 -142 -59 -412 -153 -458 -160 -19 -3 -89 -19
-155 -36 -66 -17 -128 -32 -138 -34 -10 -2 -26 -5 -35 -8 -9 -3 -28 -7 -42
-10 -14 -2 -59 -11 -100 -19 -127 -26 -267 -35 -575 -37 l-130 0 -63 -90 c-87
-124 -142 -231 -158 -308 -1 -7 -9 -23 -18 -36 -8 -13 -22 -52 -31 -87 -9 -35
-21 -71 -25 -79 -11 -20 -48 -206 -56 -275 -3 -27 -7 -56 -9 -62 -8 -25 -19
-221 -19 -338 0 -112 8 -247 18 -305 3 -14 7 -41 10 -60 7 -48 54 -208 72
-247 7 -17 14 -35 14 -40 0 -5 27 -50 60 -100 107 -163 238 -256 423 -303 134
-34 300 -26 502 25 83 21 159 45 170 55 11 10 34 20 50 24 33 8 236 93 381
161 50 23 102 46 115 50 13 4 40 20 61 36 20 15 56 36 80 45 23 10 48 21 53
25 6 4 64 36 130 72 66 35 165 93 220 127 55 35 127 79 160 98 71 42 141 96
155 121 22 42 23 77 45 1076 3 116 7 260 10 320 2 61 7 175 11 255 3 80 7 163
9 185 9 130 17 205 25 240 6 26 5 44 -2 52 -13 16 -16 16 -58 -9z"/>
<path d="M4788 12298 c-178 -178 -337 -334 -353 -348 -17 -14 -55 -45 -85 -70
-30 -24 -62 -52 -70 -61 -12 -12 -80 -65 -195 -151 -5 -4 -23 -18 -40 -31 -76
-58 -240 -170 -340 -232 -60 -37 -119 -75 -130 -84 -11 -10 -36 -24 -55 -31
-19 -8 -51 -23 -70 -34 -32 -19 -60 -31 -272 -120 -92 -38 -238 -83 -298 -92
-57 -9 -112 -25 -134 -39 -15 -10 -62 -15 -154 -17 -165 -3 -174 -7 -139 -71
30 -53 70 -193 92 -322 21 -126 18 -110 61 -290 14 -60 27 -117 29 -125 2 -8
17 -71 33 -140 17 -69 33 -147 37 -175 3 -27 8 -64 10 -81 3 -17 8 -42 13 -55
5 -13 10 -44 10 -67 1 -24 8 -58 16 -75 8 -18 20 -50 26 -72 28 -91 231 -477
359 -682 28 -46 51 -88 51 -94 0 -6 14 -31 30 -56 17 -25 41 -66 54 -92 36
-70 103 -141 133 -141 32 0 177 36 223 56 55 23 125 61 260 141 69 41 130 78
137 81 45 27 236 170 328 247 130 108 376 352 521 516 83 94 234 304 234 326
0 3 20 35 44 72 25 37 59 97 76 135 51 109 136 379 156 496 3 14 10 41 16 60
18 55 19 59 19 170 1 120 -6 167 -62 410 -22 96 -49 222 -60 280 -11 58 -26
130 -34 160 -7 30 -16 79 -19 108 -3 29 -8 63 -11 75 -3 12 -7 33 -9 47 -3 14
-10 50 -16 80 -6 30 -13 75 -16 100 -3 25 -7 52 -9 60 -2 8 -7 38 -10 65 -3
28 -10 75 -15 105 -5 30 -12 74 -15 97 -3 23 -11 63 -18 90 -7 26 -12 81 -11
121 0 39 0 72 -2 72 -2 0 -149 -145 -326 -322z"/>
<path d="M6469 12533 c-1 -5 -1 -11 -1 -14 13 -104 19 -172 27 -284 3 -55 11
-120 16 -144 5 -24 12 -78 14 -120 6 -86 14 -162 19 -170 4 -6 10 -47 21 -143
3 -24 7 -61 10 -83 3 -22 8 -65 11 -95 8 -72 50 -325 68 -415 8 -38 16 -86 19
-105 8 -56 60 -248 102 -375 8 -22 17 -56 20 -75 14 -69 97 -132 385 -293 74
-41 146 -78 160 -82 14 -4 36 -15 50 -25 14 -9 42 -23 63 -29 20 -7 37 -16 37
-20 0 -5 35 -21 78 -36 42 -15 113 -46 158 -69 44 -24 94 -46 110 -50 16 -4
74 -24 129 -45 230 -88 406 -143 505 -155 75 -10 354 -7 446 4 86 11 107 18
217 80 32 17 72 34 90 36 43 6 144 43 156 58 13 16 39 112 46 175 4 30 8 61
10 70 1 9 6 51 10 94 3 43 8 88 11 100 2 12 6 74 8 137 6 173 -15 317 -74 520
-10 36 -21 88 -25 115 -3 28 -8 61 -10 75 -2 14 -6 57 -10 95 -9 100 -15 132
-30 173 -20 59 -65 148 -83 168 -9 11 -23 32 -31 47 -8 15 -39 57 -68 92 -68
83 -83 84 -181 9 -58 -44 -184 -91 -292 -109 -19 -3 -43 -8 -53 -11 -24 -7
-256 -7 -287 0 -14 4 -41 9 -60 12 -83 13 -272 77 -395 134 -11 5 -49 21 -85
36 -106 43 -254 111 -310 143 -25 14 -148 71 -154 71 -3 0 -27 13 -53 28 -26
16 -88 50 -138 76 -49 27 -96 53 -103 59 -15 12 -59 38 -127 73 -27 15 -75 44
-105 64 -30 21 -77 51 -105 69 -27 17 -55 35 -62 41 -7 5 -16 10 -22 10 -5 0
-11 3 -13 8 -5 11 -100 82 -110 82 -4 0 -9 -3 -9 -7z"/>
<path d="M22472 12393 c-7 -21 -14 -51 -16 -68 -11 -75 -19 -111 -27 -127 -8
-14 -38 -147 -74 -321 -2 -10 -7 -27 -10 -37 -7 -21 -9 -28 -31 -120 -9 -36
-22 -81 -30 -100 -7 -19 -16 -46 -18 -60 -3 -14 -16 -70 -30 -125 -15 -55 -29
-113 -32 -130 -3 -16 -18 -82 -35 -145 -16 -63 -32 -124 -34 -134 -2 -11 -11
-40 -19 -65 -8 -25 -30 -102 -47 -171 -42 -166 -44 -259 -6 -350 15 -35 29
-75 32 -88 2 -13 10 -34 18 -46 8 -11 20 -39 27 -61 7 -22 16 -44 20 -50 4 -5
39 -71 77 -145 73 -143 76 -148 160 -278 30 -46 58 -93 62 -105 5 -12 28 -47
52 -77 23 -29 74 -100 114 -156 102 -145 137 -185 356 -404 206 -207 358 -327
549 -435 47 -26 96 -55 110 -65 24 -16 49 -26 195 -76 39 -13 79 -28 90 -34
46 -22 118 -29 241 -21 34 2 106 78 162 173 29 48 52 89 52 92 0 3 17 42 39
88 82 176 113 251 118 282 2 17 12 47 22 66 10 19 24 60 31 90 7 30 20 69 28
85 14 28 57 176 68 235 2 14 7 32 10 40 3 8 8 25 10 38 3 12 16 59 30 105 15
45 28 96 31 112 2 17 11 48 20 70 8 22 17 51 19 64 3 13 12 51 20 85 9 34 24
98 34 143 10 45 24 99 31 120 14 42 14 41 23 98 9 53 19 90 76 285 27 91 51
178 54 193 l5 28 -142 -4 c-129 -4 -231 2 -312 18 -80 16 -194 48 -232 65 -24
11 -49 20 -56 20 -7 0 -21 6 -32 14 -11 7 -45 21 -75 31 -71 23 -263 123 -413
214 -132 80 -375 254 -536 386 -88 72 -456 435 -532 525 -26 30 -65 76 -87
102 -22 26 -61 74 -87 107 -25 34 -50 61 -54 61 -4 0 -13 -17 -19 -37z"/>
<path d="M20865 12377 c-12 -7 -45 -30 -75 -53 -60 -45 -263 -174 -274 -174
-4 0 -16 -8 -26 -18 -11 -10 -39 -28 -62 -41 -93 -51 -485 -248 -523 -263 -22
-9 -65 -27 -95 -40 -30 -14 -82 -35 -115 -48 -33 -13 -67 -28 -75 -35 -16 -13
-175 -64 -345 -111 -90 -24 -118 -27 -280 -29 -123 -1 -193 2 -220 11 -127 41
-192 67 -268 108 -46 25 -89 46 -96 46 -12 0 -81 -103 -123 -185 -14 -27 -44
-111 -67 -185 -23 -74 -46 -146 -51 -160 -17 -45 -68 -264 -75 -315 -3 -27 -8
-64 -10 -80 -2 -17 -7 -64 -10 -105 -4 -41 -9 -86 -12 -100 -9 -46 -12 -494
-4 -550 5 -30 12 -75 15 -100 11 -71 24 -105 54 -133 29 -27 125 -73 169 -80
16 -3 48 -14 73 -25 44 -18 88 -27 210 -38 30 -3 71 -10 90 -17 21 -6 104 -11
205 -10 157 0 180 2 300 32 71 18 136 37 142 43 7 6 13 8 13 4 0 -3 37 8 83
25 45 17 113 42 150 55 38 13 82 33 97 44 15 11 35 20 44 20 73 0 901 433 953
498 47 59 122 314 137 466 9 81 15 119 32 206 8 41 17 102 19 135 9 123 15
233 20 320 2 50 7 146 11 215 3 69 7 157 9 195 1 39 6 156 10 262 4 105 3 198
-1 206 -7 12 -13 13 -29 4z"/>
<path d="M5550 10264 c-6 -14 -10 -29 -10 -33 0 -4 -13 -48 -29 -97 -43 -132
-197 -422 -289 -544 -257 -339 -386 -482 -617 -685 -38 -33 -73 -65 -79 -70
-77 -75 -376 -293 -551 -403 -46 -30 -137 -76 -202 -103 -65 -28 -125 -54
-133 -58 -17 -10 -15 -44 5 -75 8 -12 21 -41 31 -66 9 -25 23 -52 30 -60 7 -8
15 -26 17 -40 9 -43 26 -80 117 -250 49 -91 102 -197 118 -235 26 -62 115
-261 145 -323 13 -28 169 -223 263 -328 38 -43 85 -96 104 -118 63 -72 184
-199 272 -287 109 -111 128 -116 225 -65 37 20 79 46 93 58 14 13 68 59 120
103 135 114 374 359 450 460 21 28 47 61 59 75 47 54 58 67 99 121 23 31 42
61 42 66 0 6 6 13 14 16 8 3 38 43 66 89 28 46 76 119 107 163 56 82 258 482
287 568 9 26 25 66 36 87 11 22 23 56 26 77 3 21 10 45 14 53 9 16 20 79 25
141 2 32 -14 65 -119 240 -67 112 -133 222 -147 244 -32 49 -219 430 -249 504
-11 30 -30 65 -40 79 -11 14 -20 30 -20 37 0 7 -27 77 -59 157 -87 212 -158
408 -165 451 -12 74 -38 98 -56 51z"/>
<path d="M21895 10190 c-4 -11 -8 -32 -11 -47 -5 -32 -31 -119 -44 -148 -25
-55 -59 -146 -75 -195 -15 -49 -104 -274 -140 -355 -7 -16 -25 -59 -40 -95
-30 -72 -228 -472 -301 -608 -74 -137 -98 -182 -139 -255 -27 -50 -38 -80 -37
-110 0 -69 95 -337 177 -501 112 -224 171 -335 200 -375 14 -20 60 -88 103
-152 42 -64 92 -134 110 -155 18 -21 64 -79 101 -127 113 -145 316 -362 461
-493 86 -77 218 -173 294 -215 67 -36 83 -40 117 -35 116 19 284 201 499 541
45 72 86 139 91 150 5 11 13 27 19 35 9 13 73 127 148 260 13 25 28 50 32 55
9 12 120 225 225 431 42 82 100 196 130 253 30 57 57 112 60 121 4 13 -10 23
-67 45 -97 37 -293 131 -343 164 -22 14 -57 35 -78 46 -75 40 -314 218 -407
303 -182 168 -399 401 -511 547 -78 102 -293 425 -346 520 -68 122 -157 300
-178 357 -19 51 -41 68 -50 38z"/>
<path d="M6996 10061 c-5 -8 43 -106 182 -371 36 -69 80 -152 97 -185 16 -33
39 -74 51 -90 11 -17 37 -64 59 -105 21 -41 43 -82 50 -90 11 -15 109 -185
175 -305 18 -33 36 -64 40 -70 4 -5 25 -44 47 -85 60 -111 92 -168 136 -240
22 -36 48 -84 58 -106 9 -23 28 -59 42 -80 13 -22 57 -100 97 -174 40 -74 88
-155 105 -180 18 -25 40 -61 49 -80 54 -115 89 -143 191 -154 33 -3 71 -8 85
-11 25 -4 59 -7 245 -20 50 -3 96 -8 103 -11 41 -13 146 -18 407 -17 266 1
295 3 349 22 33 12 67 21 77 21 33 0 202 60 259 92 70 39 200 135 200 148 0 5
41 42 90 81 116 91 123 105 104 195 -8 38 -17 96 -20 129 -8 82 -36 192 -95
370 -54 161 -69 191 -165 331 -60 88 -134 230 -134 256 0 51 -137 214 -263
314 l-78 62 -57 -29 c-31 -15 -107 -46 -169 -68 -61 -22 -131 -50 -154 -62
-66 -33 -160 -66 -209 -73 -72 -10 -515 -7 -563 4 -24 5 -104 30 -178 54 -74
25 -156 53 -184 62 -242 78 -690 283 -925 423 -90 54 -96 56 -104 42z m44 -42
c0 -5 -4 -9 -10 -9 -5 0 -10 7 -10 16 0 8 5 12 10 9 6 -3 10 -10 10 -16z"/>
<path d="M20485 10004 c-28 -15 -63 -36 -78 -46 -49 -35 -509 -263 -587 -292
-41 -15 -85 -33 -96 -41 -28 -18 -236 -97 -344 -130 -209 -65 -199 -62 -270
-72 -85 -11 -334 -6 -470 11 -14 2 -54 7 -90 11 -36 4 -74 9 -85 11 -11 2 -33
7 -50 10 -69 12 -244 68 -301 95 -33 17 -72 41 -88 55 -20 19 -34 24 -53 20
-14 -4 -76 -57 -137 -119 -84 -83 -133 -143 -192 -234 -80 -123 -168 -272
-193 -328 -7 -16 -27 -56 -42 -88 -16 -32 -29 -64 -29 -71 0 -6 -9 -28 -20
-49 -27 -50 -107 -277 -119 -336 -5 -25 -16 -77 -24 -116 -8 -38 -18 -103 -22
-143 l-6 -72 54 -50 c78 -72 121 -105 212 -165 105 -69 153 -92 315 -155 199
-78 243 -84 560 -85 190 0 268 4 360 19 14 3 70 7 125 11 55 3 114 8 130 10
17 2 62 6 100 10 39 3 81 7 95 9 14 3 59 10 100 16 117 19 140 32 188 104 23
35 45 72 49 82 3 11 25 46 47 79 22 33 40 62 40 65 0 3 19 34 42 70 23 36 76
135 118 222 42 86 90 174 106 197 16 22 43 68 59 103 17 35 62 119 101 188 38
69 70 131 70 138 0 8 8 26 18 40 10 15 25 43 32 62 7 19 22 47 32 63 11 15 17
27 13 27 -3 0 4 18 15 40 11 21 20 48 20 58 0 10 9 27 20 37 11 10 20 22 20
26 0 5 22 52 48 106 26 54 59 125 72 158 13 33 39 87 57 121 18 34 40 85 49
114 8 29 33 89 55 133 54 111 53 113 -26 71z"/>
<path d="M6557 8198 c-13 -29 -32 -78 -42 -108 -27 -86 -163 -362 -266 -536
-116 -199 -237 -378 -348 -515 -47 -59 -99 -124 -116 -145 -83 -106 -151 -181
-283 -309 -80 -77 -154 -146 -165 -154 -12 -8 -38 -32 -59 -53 -22 -22 -70
-59 -108 -84 -38 -24 -71 -48 -74 -53 -3 -4 2 -17 12 -27 130 -147 225 -248
367 -394 397 -407 463 -466 610 -544 109 -59 182 -111 364 -264 68 -58 134
-110 148 -117 29 -15 60 -9 68 14 3 9 26 39 51 66 26 28 67 85 93 128 25 43
55 92 65 110 38 64 204 404 230 472 15 39 41 97 56 130 16 33 45 118 65 189
20 72 43 142 51 158 17 32 35 114 63 283 27 164 35 266 35 440 1 154 -10 209
-52 267 -73 100 -148 197 -177 228 -17 19 -49 67 -69 105 -21 39 -90 148 -153
244 -64 96 -126 197 -139 225 -12 28 -40 74 -62 103 -22 29 -59 83 -83 122
-24 39 -47 70 -50 71 -4 0 -18 -24 -32 -52z"/>
<path d="M20902 8123 c-10 -15 -27 -42 -36 -60 -9 -18 -48 -76 -86 -129 -39
-53 -70 -100 -70 -104 0 -4 -16 -25 -36 -46 -19 -22 -59 -75 -88 -119 -29 -44
-98 -134 -152 -200 -55 -66 -130 -160 -169 -210 -38 -49 -72 -92 -75 -95 -17
-15 -39 -62 -50 -110 -15 -61 -20 -351 -9 -459 4 -36 10 -91 13 -121 14 -135
93 -442 157 -606 21 -56 43 -122 48 -146 13 -58 165 -383 239 -513 66 -114
187 -290 230 -333 34 -34 47 -42 65 -36 24 7 101 66 238 180 81 68 212 164
223 164 17 0 187 107 257 163 83 65 273 246 379 362 115 125 219 242 255 285
39 47 88 95 143 137 17 14 32 31 32 38 0 7 -19 25 -42 41 -55 37 -56 38 -233
191 -138 119 -187 168 -285 278 -19 22 -67 76 -106 120 -159 180 -337 426
-475 657 -67 111 -247 455 -254 485 -8 33 -35 108 -47 128 -6 11 -14 33 -17
49 -9 40 -25 43 -49 9z"/>
<path d="M10243 7800 c-90 -83 -234 -182 -300 -206 -32 -11 -76 -28 -98 -38
-148 -66 -366 -99 -655 -99 -127 -1 -412 11 -448 18 -10 1 -52 6 -95 10 -43 3
-88 8 -100 10 -74 12 -100 15 -108 10 -17 -11 42 -103 114 -179 15 -16 27 -35
27 -42 0 -7 25 -50 57 -96 62 -92 341 -467 358 -483 6 -5 23 -26 37 -45 14
-19 64 -82 112 -140 48 -58 104 -125 124 -149 20 -25 65 -77 98 -117 34 -40
69 -82 77 -94 15 -22 20 -22 332 -36 183 -9 278 -8 450 0 222 12 332 20 387
32 13 2 37 6 53 9 17 3 102 31 190 62 191 67 261 110 391 238 98 96 119 130
108 179 -9 45 -65 209 -74 221 -5 6 -18 41 -30 79 -36 110 -120 246 -248 402
-37 45 -89 121 -116 168 -106 190 -276 311 -465 331 -123 14 -112 16 -178 -45z"/>
<path d="M17006 7772 c-27 -7 -74 -26 -104 -44 -59 -34 -199 -169 -290 -282
-31 -39 -63 -78 -71 -86 -18 -19 -166 -242 -203 -305 -63 -109 -131 -251 -164
-343 -30 -82 -35 -107 -32 -161 l4 -65 71 -65 c38 -36 101 -85 139 -108 141
-85 372 -190 459 -209 75 -15 117 -20 242 -29 77 -5 110 -9 208 -21 90 -11
238 -7 460 11 42 4 158 11 310 21 148 8 181 22 261 107 38 41 77 84 87 96 70
87 249 329 327 441 52 74 97 137 100 140 10 8 189 266 240 345 43 67 113 168
145 210 24 31 19 47 -12 41 -16 -3 -50 -8 -78 -11 -27 -3 -61 -8 -75 -11 -52
-10 -67 -12 -125 -19 -32 -4 -67 -8 -75 -10 -21 -4 -141 -14 -250 -20 -126 -8
-500 -8 -540 -1 -77 15 -119 26 -220 60 -131 43 -241 85 -255 96 -5 4 -55 32
-110 61 -55 29 -142 81 -194 116 -91 61 -97 63 -150 61 -30 -2 -77 -9 -105
-16z"/>
<path d="M19834 6764 c-21 -22 -91 -97 -154 -165 -63 -68 -354 -363 -646 -655
l-532 -531 -20 -65 c-11 -36 -25 -89 -31 -119 -6 -30 -12 -64 -15 -76 -3 -12
-8 -50 -11 -85 -4 -35 -9 -76 -11 -93 -2 -16 -6 -138 -7 -270 -3 -174 0 -257
9 -300 7 -33 19 -96 25 -140 11 -73 47 -203 97 -345 24 -69 119 -250 150 -284
12 -15 22 -29 22 -32 0 -10 78 -119 110 -153 18 -19 43 -52 57 -73 21 -31 30
-37 47 -32 24 8 195 122 278 185 31 24 87 61 125 82 37 20 75 41 83 46 8 5 62
32 120 60 209 100 306 175 679 529 187 177 258 241 337 301 144 108 144 134 4
317 -44 58 -91 127 -105 153 -13 27 -35 61 -48 77 -13 16 -28 40 -32 54 -4 14
-48 107 -97 207 -49 99 -100 212 -113 250 -13 37 -33 95 -44 128 -12 33 -28
72 -36 87 -8 14 -15 37 -15 50 0 13 -9 40 -20 61 -11 20 -20 43 -20 51 0 8
-11 50 -24 93 -14 43 -27 101 -30 128 -6 55 -9 71 -24 130 -12 47 -19 87 -27
170 -20 202 -26 257 -35 280 -7 18 -10 16 -46 -21z"/>
<path d="M7599 6773 c0 -5 -2 -41 -4 -80 -3 -64 -10 -116 -31 -242 -15 -91
-75 -343 -88 -376 -9 -21 -16 -47 -16 -59 0 -12 -7 -31 -15 -43 -8 -12 -20
-46 -25 -75 -6 -29 -14 -62 -20 -73 -11 -23 -45 -109 -69 -177 -10 -26 -22
-53 -28 -60 -6 -7 -17 -33 -26 -58 -33 -94 -86 -216 -107 -245 -26 -38 -160
-264 -160 -271 0 -3 -24 -38 -54 -77 -85 -114 -116 -168 -116 -203 0 -28 10
-41 83 -100 95 -79 224 -192 317 -279 36 -33 87 -78 113 -100 27 -22 66 -56
86 -75 20 -19 70 -64 111 -100 41 -36 88 -78 105 -94 85 -81 231 -177 376
-249 154 -76 249 -133 326 -195 22 -18 54 -41 70 -50 17 -9 52 -32 79 -50 77
-52 85 -48 174 88 16 25 30 49 30 53 0 5 16 34 35 65 19 32 46 86 61 122 14
36 30 76 36 90 6 14 12 30 14 35 2 6 26 75 53 155 45 131 90 321 107 455 3 28
7 57 9 65 1 8 6 35 10 60 14 93 16 106 24 142 13 57 14 280 1 313 -14 37 -39
64 -300 335 -201 209 -235 246 -301 324 -13 16 -30 34 -36 40 -7 6 -63 67
-125 136 -62 69 -129 143 -150 166 -21 22 -56 67 -79 100 -23 32 -45 61 -48
64 -4 3 -63 75 -131 160 -68 85 -127 157 -130 160 -4 3 -39 51 -80 108 -71
100 -79 109 -81 95z"/>
<path d="M11459 6352 c-9 -4 -49 -38 -89 -75 -137 -128 -238 -195 -350 -232
-30 -10 -77 -28 -105 -40 -27 -12 -66 -26 -85 -30 -19 -4 -53 -15 -75 -25 -39
-19 -57 -22 -180 -35 -33 -4 -67 -8 -75 -10 -80 -20 -676 -27 -726 -8 -49 17
-60 2 -28 -38 53 -65 429 -433 509 -498 17 -13 51 -43 76 -65 25 -23 56 -50
70 -60 13 -11 42 -35 65 -55 22 -20 59 -52 83 -71 24 -19 55 -45 70 -58 14
-12 59 -48 100 -80 40 -31 99 -77 130 -102 31 -25 68 -53 84 -63 l27 -18 120
73 c67 40 149 90 183 111 34 20 105 60 157 89 52 28 104 59 115 68 26 22 174
81 287 114 49 13 91 27 96 30 4 2 35 7 67 11 33 3 67 8 75 11 57 15 176 13
248 -5 108 -28 113 -21 61 94 -95 215 -157 318 -294 485 -35 43 -72 99 -83
124 -41 91 -173 245 -235 271 -17 8 -45 23 -62 35 -62 42 -191 71 -236 52z
m-1264 -842 c3 -6 -1 -7 -9 -4 -18 7 -21 14 -7 14 6 0 13 -4 16 -10z"/>
<path d="M15894 6286 c-27 -12 -73 -38 -100 -58 -74 -54 -254 -244 -332 -350
-77 -103 -182 -262 -182 -274 0 -4 -9 -17 -20 -29 -25 -26 -159 -295 -166
-335 -7 -35 -6 -35 61 -15 53 17 173 21 252 9 106 -15 379 -173 564 -326 64
-53 132 -100 209 -146 66 -40 191 -82 220 -75 3 1 24 4 48 8 23 3 75 17 115
31 40 14 82 28 95 31 12 3 22 9 22 14 0 5 7 9 16 9 9 0 40 14 68 32 28 17 80
47 116 66 114 62 205 126 359 250 62 51 134 107 160 124 66 46 505 474 574
561 l31 39 -65 -7 c-35 -4 -73 -9 -84 -12 -23 -5 -677 -4 -750 1 -89 6 -210
18 -215 21 -3 2 -30 6 -60 10 -60 7 -169 48 -354 132 -140 65 -258 134 -341
200 -139 112 -163 121 -241 89z"/>
<path d="M18152 5082 c-75 -66 -409 -391 -761 -742 -481 -480 -622 -632 -665
-717 -8 -17 -23 -38 -32 -47 -43 -44 -109 -183 -129 -274 -3 -12 -7 -32 -10
-44 -3 -13 -8 -45 -11 -73 -3 -27 -8 -53 -10 -56 -8 -13 -18 -159 -18 -254 1
-170 19 -252 52 -241 102 33 380 92 482 101 25 3 65 7 90 10 25 2 77 7 117 10
95 9 112 11 153 19 41 9 161 41 207 57 18 5 40 12 50 14 42 9 194 66 268 100
44 20 134 57 200 82 66 24 136 51 155 60 58 26 142 50 198 58 83 11 142 73
142 148 0 24 -13 52 -41 93 -127 184 -191 295 -256 444 -34 80 -63 158 -63
173 0 15 -7 44 -16 65 -9 20 -17 46 -20 57 -2 11 -13 61 -24 110 -25 115 -30
179 -35 455 -3 170 -1 243 10 300 18 88 18 93 6 85 -5 -3 -11 2 -13 11 -3 14
-6 13 -26 -4z"/>
<path d="M9279 4933 c0 -4 -2 -60 -4 -123 -1 -63 -5 -128 -8 -145 -5 -30 -12
-73 -23 -155 -19 -144 -76 -384 -129 -546 -34 -102 -109 -287 -125 -309 -4 -5
-11 -24 -15 -42 -3 -18 -15 -43 -26 -57 -34 -43 -67 -159 -74 -254 -2 -37 16
-62 46 -62 32 0 331 -100 360 -121 14 -10 38 -21 55 -25 16 -4 38 -13 49 -20
11 -8 29 -14 40 -14 11 0 32 -6 46 -13 14 -8 44 -17 67 -21 23 -3 106 -34 185
-67 233 -100 319 -124 522 -144 33 -3 74 -7 90 -10 17 -2 66 -7 110 -11 44 -3
103 -13 130 -20 53 -15 76 -20 140 -28 22 -3 63 -12 90 -20 28 -8 71 -18 97
-21 39 -6 48 -4 56 11 23 44 35 212 19 257 -5 17 -40 82 -77 146 -77 134 -146
275 -201 411 -21 52 -47 113 -58 135 -12 21 -21 47 -21 57 0 9 -4 19 -9 22 -4
3 -14 27 -21 53 -20 74 -86 188 -133 228 -23 20 -92 71 -154 113 -138 94 -192
133 -274 195 -35 27 -75 57 -89 67 -14 10 -50 37 -80 60 -30 23 -104 79 -165
125 -60 45 -135 106 -165 134 -30 28 -75 66 -100 83 -25 17 -61 51 -80 75 -35
44 -69 71 -71 56z"/>
<path d="M14900 445 c0 -8 4 -15 9 -15 5 0 11 7 15 15 3 9 0 15 -9 15 -8 0
-15 -7 -15 -15z"/>
</g>
</svg>
